<mxfile host="65bd71144e">
    <diagram id="zUcA9h8Im7lcs0AyFAT5" name="Page-1">
        <mxGraphModel dx="1034" dy="1604" grid="1" gridSize="10" guides="1" tooltips="1" connect="1" arrows="1" fold="1" page="1" pageScale="1" pageWidth="850" pageHeight="1100" math="0" shadow="0">
            <root>
                <mxCell id="0"/>
                <mxCell id="1" parent="0"/>
                <mxCell id="5" value="" style="rounded=0;whiteSpace=wrap;html=1;strokeColor=#FF8000;" vertex="1" parent="1">
                    <mxGeometry x="180" y="-50" width="490" height="180" as="geometry"/>
                </mxCell>
                <mxCell id="2" value="" style="rounded=0;whiteSpace=wrap;html=1;strokeColor=#00FFFF;" vertex="1" parent="1">
                    <mxGeometry x="180" y="190" width="490" height="180" as="geometry"/>
                </mxCell>
                <mxCell id="3" value="Domain" style="text;html=1;align=center;verticalAlign=middle;resizable=0;points=[];autosize=1;strokeColor=none;fillColor=none;" vertex="1" parent="1">
                    <mxGeometry x="610" y="160" width="60" height="30" as="geometry"/>
                </mxCell>
                <mxCell id="10" style="edgeStyle=none;html=1;" edge="1" parent="1" source="4" target="9">
                    <mxGeometry relative="1" as="geometry"/>
                </mxCell>
                <mxCell id="4" value="AddPlant" style="rounded=0;whiteSpace=wrap;html=1;strokeColor=#FFFF33;" vertex="1" parent="1">
                    <mxGeometry x="240" y="240" width="160" height="80" as="geometry"/>
                </mxCell>
                <mxCell id="6" value="Infra" style="text;html=1;align=center;verticalAlign=middle;resizable=0;points=[];autosize=1;strokeColor=none;fillColor=none;" vertex="1" parent="1">
                    <mxGeometry x="615" y="-80" width="50" height="30" as="geometry"/>
                </mxCell>
                <mxCell id="11" style="edgeStyle=none;html=1;entryX=0.5;entryY=0;entryDx=0;entryDy=0;exitX=0.5;exitY=1;exitDx=0;exitDy=0;" edge="1" parent="1" source="7" target="9">
                    <mxGeometry relative="1" as="geometry"/>
                </mxCell>
                <mxCell id="7" value="AddPlantRepository" style="rounded=0;whiteSpace=wrap;html=1;strokeColor=#FFFF33;" vertex="1" parent="1">
                    <mxGeometry x="345" width="160" height="80" as="geometry"/>
                </mxCell>
                <mxCell id="9" value="AddPlantRepository" style="rounded=0;whiteSpace=wrap;html=1;strokeColor=#7F00FF;" vertex="1" parent="1">
                    <mxGeometry x="470" y="240" width="160" height="80" as="geometry"/>
                </mxCell>
            </root>
        </mxGraphModel>
    </diagram>
</mxfile>
